<svg width="18" height="14" viewBox="0 0 18 14" fill="none" xmlns="http://www.w3.org/2000/svg">
<path d="M0.00333881 0.662508C-0.0427238 0.217967 0.396013 -0.11906 0.813655 0.0400416L17.6119 6.43937C18.127 6.63561 18.127 7.36439 17.6119 7.56063L0.813655 13.96C0.396013 14.1191 -0.0427238 13.782 0.00333881 13.3375L0.600081 7.57846V6.42154L0.00333881 0.662508ZM1.76851 6.08513C1.78588 6.2538 1.79995 6.53037 1.79995 6.69812V7.30188C1.79995 7.47175 1.78598 7.74513 1.76851 7.91487L1.32872 12.1863C1.31135 12.355 1.4219 12.4443 1.57877 12.3845L15.4316 7.10724C15.587 7.04801 15.5884 6.95252 15.4316 6.89276L1.57877 1.61551C1.4233 1.55628 1.31124 1.64394 1.32872 1.81368L1.76851 6.08513Z" fill="black"/>
</svg>
