<svg width="24" height="24" viewBox="0 0 24 24" fill="none" xmlns="http://www.w3.org/2000/svg">
<path d="M4.50278 5.20983C4.46439 4.73354 4.83004 4.37244 5.17811 4.5429L19.178 11.3993C19.6073 11.6096 19.6073 12.3904 19.178 12.6007L5.17811 19.4571C4.83004 19.6276 4.46439 19.2665 4.50278 18.7902L5.00012 12.6198V11.3802L4.50278 5.20983ZM5.9739 11.0198C5.98837 11.2005 6.00011 11.4968 6.00011 11.6766V12.3234C6.00011 12.5054 5.98847 12.7984 5.9739 12.9802L5.60737 17.5568C5.5929 17.7375 5.68503 17.8331 5.81577 17.7691L17.3609 12.1149C17.4905 12.0514 17.4916 11.9491 17.3609 11.8851L5.81577 6.2309C5.6862 6.16744 5.59281 6.26137 5.60737 6.44322L5.9739 11.0198Z" fill="black"/>
</svg>
