<svg width="104" height="104" viewBox="0 0 104 104" fill="none" xmlns="http://www.w3.org/2000/svg">
<path d="M53.7415 89.2693V102C62.7877 94.1253 74.1529 89.4117 86.117 88.5726L77.1306 79.5688C68.3869 79.7227 60.0276 83.1897 53.7415 89.2693Z" fill="black" stroke="white"/>
<path d="M17.883 88.5726C29.8471 89.4117 41.2123 94.1253 50.2584 102V89.2693C43.9697 83.1961 35.6107 79.7355 26.8694 79.5862L17.883 88.5726Z" fill="black" stroke="white"/>
<path d="M14.7308 53.7416H2C9.87472 62.7877 14.5883 74.1529 15.4274 86.117L24.4312 77.1306C24.2773 68.3869 20.8103 60.0276 14.7308 53.7416V53.7416Z" fill="black" stroke="white"/>
<path d="M24.4138 26.8694L15.4274 17.883C14.5883 29.8471 9.87472 41.2123 2 50.2584H14.7308C20.8039 43.9697 24.2646 35.6107 24.4138 26.8694Z" fill="black" stroke="white"/>
<path d="M50.2584 14.7308V2C41.2123 9.87472 29.8471 14.5883 17.883 15.4274L26.8694 24.4312C35.6131 24.2773 43.9724 20.8103 50.2584 14.7308V14.7308Z" fill="black" stroke="white"/>
<path d="M86.117 15.4274C74.1529 14.5883 62.7877 9.87472 53.7415 2V14.7308C60.0303 20.8039 68.3893 24.2646 77.1306 24.4138L86.117 15.4274Z" fill="black" stroke="white"/>
<path d="M89.2692 50.2584H102C94.1253 41.2123 89.4117 29.8471 88.5726 17.883L79.5688 26.8694C79.7227 35.6131 83.1897 43.9724 89.2692 50.2584V50.2584Z" fill="black" stroke="white"/>
<path d="M79.5862 77.1306L88.5726 86.117C89.4117 74.1529 94.1253 62.7877 102 53.7416H89.2693C83.1961 60.0303 79.7355 68.3893 79.5862 77.1306Z" fill="black" stroke="white"/>
<path d="M84.6367 53.7416H72.2368C69.3586 56.8318 67.6948 60.8585 67.5521 65.0791L76.2598 73.7868C77.0229 66.4274 79.9364 59.4556 84.6367 53.7416V53.7416Z" fill="black" stroke="white"/>
<path d="M76.3817 30.1609L67.674 38.8687C67.7708 43.0915 69.3914 47.1368 72.2368 50.2584H84.6367C79.9709 44.5154 77.0998 37.5255 76.3817 30.1609V30.1609Z" fill="black" stroke="white"/>
<path d="M73.8391 27.6183C66.4745 26.9002 59.4846 24.0291 53.7415 19.3633V31.7631C56.8318 34.6414 60.8585 36.3052 65.0791 36.4479L73.8391 27.6183Z" fill="black" stroke="white"/>
<path d="M50.2584 19.3633C44.5154 24.0291 37.5255 26.9002 30.1609 27.6183L38.8687 36.326C43.0915 36.2292 47.1368 34.6086 50.2584 31.7631V19.3633Z" fill="black" stroke="white"/>
<path d="M36.4479 38.9209L27.7402 30.2132C26.977 37.5726 24.0636 44.5444 19.3633 50.2584H31.7631C34.6413 47.1682 36.3052 43.1415 36.4479 38.9209V38.9209Z" fill="black" stroke="white"/>
<path d="M27.6182 73.8391L36.326 65.1313C36.2292 60.9085 34.6086 56.8632 31.7631 53.7416H19.3633C24.0291 59.4846 26.9002 66.4745 27.6182 73.8391V73.8391Z" fill="black" stroke="white"/>
<path d="M30.1609 76.3817C37.5255 77.0998 44.5154 79.9709 50.2584 84.6367V72.2368C47.1682 69.3586 43.1415 67.6948 38.9209 67.5521L30.1609 76.3817Z" fill="black" stroke="white"/>
<path d="M53.7415 84.6367C59.4846 79.9709 66.4745 77.0998 73.8391 76.3818L65.1313 67.674C60.9085 67.7708 56.8632 69.3914 53.7415 72.2369V84.6367Z" fill="black" stroke="white"/>
<path d="M58.5657 52C57.5593 50.6331 56.8963 49.0443 56.6325 47.3675C54.9557 47.1037 53.3669 46.4407 52 45.4343C50.6331 46.4407 49.0443 47.1037 47.3675 47.3675C47.1037 49.0443 46.4407 50.6331 45.4343 52C46.4407 53.3669 47.1037 54.9557 47.3675 56.6325C49.0443 56.8963 50.6331 57.5593 52 58.5657C53.3669 57.5593 54.9557 56.8963 56.6325 56.6325C56.8963 54.9557 57.5593 53.3669 58.5657 52Z" fill="black" stroke="white"/>
<path d="M42.0732 64.3824C45.0199 64.9426 47.8116 66.1306 50.2585 67.8656V61.6656C49.1644 60.7479 47.8147 60.1886 46.3922 60.0634L42.0732 64.3824Z" fill="black" stroke="white"/>
<path d="M53.7415 61.6656V67.7785C56.1884 66.0435 58.9801 64.8555 61.9268 64.2954L57.6078 59.9763C56.1754 60.1262 54.8247 60.7164 53.7415 61.6656V61.6656Z" fill="black" stroke="white"/>
<path d="M64.3824 61.9269C64.9426 58.9801 66.1306 56.1884 67.8655 53.7416H61.6656C60.7479 54.8356 60.1886 56.1853 60.0634 57.6078L64.3824 61.9269Z" fill="black" stroke="white"/>
<path d="M67.7785 50.2584C66.0435 47.8116 64.8555 45.0199 64.2954 42.0731L59.9763 46.3922C60.1262 47.8246 60.7164 49.1753 61.6656 50.2584H67.7785Z" fill="black" stroke="white"/>
<path d="M61.9268 39.6176C58.987 39.0837 56.1958 37.9257 53.7415 36.2215V42.3344C54.8356 43.2521 56.1853 43.8114 57.6078 43.9366L61.9268 39.6176Z" fill="black" stroke="white"/>
<path d="M50.2585 42.3344V36.2215C47.8042 37.9257 45.013 39.0837 42.0732 39.6176L46.3922 43.9366C47.8147 43.8114 49.1644 43.2521 50.2585 42.3344Z" fill="black" stroke="white"/>
<path d="M39.6176 42.0731C39.0837 45.013 37.9257 47.8042 36.2215 50.2584H42.3344C43.2521 49.1644 43.8114 47.8147 43.9366 46.3922L39.6176 42.0731Z" fill="black" stroke="white"/>
<path d="M43.9366 57.6078C43.8114 56.1853 43.2521 54.8356 42.3344 53.7416H36.2215C37.9257 56.1958 39.0837 58.987 39.6176 61.9269L43.9366 57.6078Z" fill="black" stroke="white"/>
</svg>
