<svg width="100" height="100" viewBox="0 0 100 100" fill="none" xmlns="http://www.w3.org/2000/svg">
<g clip-path="url(#clip0)">
<path d="M115.273 53.4832H90.4737C84.7173 59.6637 81.3895 67.717 81.1041 76.1582L98.5197 93.5737C100.046 78.8549 105.873 64.9114 115.273 53.4832V53.4832Z" fill="#657174"/>
<path d="M98.7634 6.32178L81.3479 23.7373C81.5415 32.1829 84.7827 40.2736 90.4736 46.5168H115.273C105.942 35.0308 100.2 21.0509 98.7634 6.32178V6.32178Z" fill="#657174"/>
<path d="M93.6783 1.23655C78.9492 -0.199565 64.9693 -5.94176 53.4832 -15.2734V9.52635C59.6637 15.2828 67.7171 18.6105 76.1582 18.8959L93.6783 1.23655Z" fill="#657174"/>
<path d="M46.517 -15.2734C35.0309 -5.94176 21.051 -0.199567 6.3219 1.23655L23.7374 18.6521C32.183 18.4585 40.2737 15.2173 46.517 9.52634V-15.2734Z" fill="#657174"/>
<path d="M18.8959 23.8418L1.48037 6.42627C-0.045845 21.1451 -5.8728 35.0886 -15.2734 46.5168H9.52634C15.2828 40.3363 18.6105 32.283 18.8959 23.8418V23.8418Z" fill="#657174"/>
<path d="M1.23655 93.6782L18.6521 76.2627C18.4585 67.8171 15.2173 59.7265 9.52634 53.4832H-15.2734C-5.94176 64.9692 -0.19957 78.9492 1.23655 93.6782V93.6782Z" fill="#657174"/>
<path d="M6.3219 98.7635C21.051 100.2 35.0309 105.942 46.517 115.273V90.4737C40.3365 84.7173 32.2831 81.3895 23.8419 81.1041L6.3219 98.7635Z" fill="#657174"/>
<path d="M53.4832 115.273C64.9693 105.942 78.9492 100.2 93.6783 98.7635L76.2627 81.348C67.8172 81.5415 59.7265 84.7828 53.4832 90.4737V115.273Z" fill="#657174"/>
<path d="M63.1312 49.9999C61.1185 47.2661 59.7925 44.0884 59.265 40.7348C55.9114 40.2073 52.7337 38.8813 49.9999 36.8686C47.2661 38.8813 44.0884 40.2073 40.7348 40.7348C40.2073 44.0884 38.8813 47.2661 36.8686 49.9999C38.8813 52.7337 40.2073 55.9114 40.7348 59.265C44.0884 59.7925 47.2661 61.1185 49.9999 63.1312C52.7337 61.1185 55.9114 59.7925 59.265 59.265C59.7925 55.9114 61.1185 52.7337 63.1312 49.9999Z" fill="#657174"/>
<path d="M30.1462 74.7648C36.0398 75.8852 41.6231 78.2611 46.5168 81.7311V69.3312C44.3287 67.4957 41.6294 66.3771 38.7844 66.1267L30.1462 74.7648Z" fill="#657174"/>
<path d="M53.4832 69.3313V81.557C58.3769 78.0871 63.9603 75.7112 69.8538 74.5908L61.2157 65.9527C58.3509 66.2525 55.6495 67.4329 53.4832 69.3313V69.3313Z" fill="#657174"/>
<path d="M74.7648 69.8538C75.8852 63.9602 78.261 58.3769 81.731 53.4832H69.3312C67.4957 55.6713 66.3771 58.3707 66.1267 61.2157L74.7648 69.8538Z" fill="#657174"/>
<path d="M81.557 46.5168C78.087 41.6231 75.7111 36.0397 74.5908 30.1462L65.9527 38.7843C66.2525 41.6491 67.4329 44.3505 69.3313 46.5168H81.557Z" fill="#657174"/>
<path d="M69.8538 25.2351C63.9742 24.1674 58.3918 21.8513 53.4832 18.4431V30.6688C55.6713 32.5042 58.3707 33.6229 61.2157 33.8732L69.8538 25.2351Z" fill="#657174"/>
<path d="M46.5168 30.6688V18.4431C41.6083 21.8513 36.0259 24.1674 30.1462 25.2351L38.7844 33.8732C41.6294 33.6229 44.3287 32.5042 46.5168 30.6688Z" fill="#657174"/>
<path d="M25.2353 30.1462C24.1676 36.0258 21.8515 41.6082 18.4432 46.5168H30.6689C32.5044 44.3287 33.623 41.6293 33.8734 38.7843L25.2353 30.1462Z" fill="#657174"/>
<path d="M33.8734 61.2157C33.623 58.3707 32.5044 55.6713 30.6689 53.4832H18.4432C21.8515 58.3918 24.1676 63.9741 25.2353 69.8538L33.8734 61.2157Z" fill="#657174"/>
</g>
<defs>
<clipPath id="clip0">
<rect width="100" height="100" rx="50" fill="white"/>
</clipPath>
</defs>
</svg>
