<svg width="100" height="100" viewBox="0 0 100 100" fill="none" xmlns="http://www.w3.org/2000/svg">
<path d="M51.7068 86.5239V99C60.572 91.2828 71.7099 86.6635 83.4347 85.8412L74.628 77.0174C66.0592 77.1683 57.8671 80.5659 51.7068 86.5239Z" fill="#E8B0B0"/>
<path d="M16.5653 85.8412C28.2902 86.6635 39.4281 91.2828 48.2933 99.0001V86.5239C42.1303 80.5722 33.9385 77.1808 25.372 77.0345L16.5653 85.8412Z" fill="#E8B0B0"/>
<path d="M13.4761 51.7068H1C8.71722 60.572 13.3365 71.7099 14.1588 83.4347L22.9826 74.628C22.8317 66.0592 19.4341 57.8671 13.4761 51.7068V51.7068Z" fill="#E8B0B0"/>
<path d="M22.9655 25.3719L14.1588 16.5652C13.3365 28.2901 8.71722 39.428 1 48.2932H13.4761C19.4279 42.1302 22.8193 33.9384 22.9655 25.3719Z" fill="#E8B0B0"/>
<path d="M48.2933 13.4761V1C39.4281 8.71722 28.2902 13.3365 16.5653 14.1588L25.372 22.9826C33.9408 22.8317 42.133 19.4341 48.2933 13.4761V13.4761Z" fill="#E8B0B0"/>
<path d="M83.4347 14.1588C71.7099 13.3365 60.572 8.71722 51.7068 1V13.4761C57.8698 19.4279 66.0616 22.8193 74.628 22.9655L83.4347 14.1588Z" fill="#E8B0B0"/>
<path d="M86.5238 48.2932H99C91.2828 39.428 86.6634 28.2901 85.8411 16.5652L77.0174 25.3719C77.1682 33.9407 80.5659 42.1329 86.5238 48.2932V48.2932Z" fill="#E8B0B0"/>
<path d="M77.0345 74.628L85.8412 83.4347C86.6635 71.7099 91.2828 60.572 99.0001 51.7068H86.5239C80.5722 57.8698 77.1808 66.0616 77.0345 74.628Z" fill="#E8B0B0"/>
<path d="M81.984 51.7068H69.8321C67.0115 54.7352 65.3809 58.6813 65.241 62.8175L73.7746 71.3511C74.5225 64.1389 77.3777 57.3066 81.984 51.7068V51.7068Z" fill="#E8B0B0"/>
<path d="M73.8941 28.5977L65.3605 37.1313C65.4553 41.2696 67.0435 45.234 69.8321 48.2932H81.984C77.4115 42.6651 74.5978 35.8149 73.8941 28.5977V28.5977Z" fill="#E8B0B0"/>
<path d="M71.4023 26.1059C64.1851 25.4022 57.3349 22.5885 51.7068 18.0161V30.1679C54.7352 32.9886 58.6813 34.6191 62.8175 34.759L71.4023 26.1059Z" fill="#E8B0B0"/>
<path d="M48.2933 18.0161C42.6651 22.5885 35.815 25.4022 28.5977 26.1059L37.1313 34.6395C41.2697 34.5447 45.2341 32.9565 48.2933 30.1679V18.0161Z" fill="#E8B0B0"/>
<path d="M34.759 37.1825L26.2254 28.6489C25.4775 35.8611 22.6223 42.6934 18.0161 48.2932H30.1679C32.9886 45.2648 34.6191 41.3187 34.759 37.1825V37.1825Z" fill="#E8B0B0"/>
<path d="M26.1059 71.4023L34.6395 62.8687C34.5447 58.7304 32.9565 54.766 30.1679 51.7068H18.0161C22.5885 57.3349 25.4022 64.1851 26.1059 71.4023V71.4023Z" fill="#E8B0B0"/>
<path d="M28.5977 73.8941C35.815 74.5978 42.6651 77.4115 48.2933 81.984V69.8321C45.2648 67.0115 41.3187 65.3809 37.1825 65.241L28.5977 73.8941Z" fill="#E8B0B0"/>
<path d="M51.7068 81.984C57.3349 77.4115 64.1851 74.5978 71.4023 73.8941L62.8687 65.3605C58.7304 65.4554 54.766 67.0436 51.7068 69.8321V81.984Z" fill="#E8B0B0"/>
<path d="M56.4343 50C55.4481 48.6604 54.7983 47.1033 54.5398 45.4601C52.8966 45.2016 51.3395 44.5519 50 43.5656C48.6604 44.5519 47.1033 45.2016 45.4601 45.4601C45.2016 47.1033 44.5519 48.6604 43.5656 50C44.5519 51.3395 45.2016 52.8966 45.4601 54.5398C47.1033 54.7983 48.6604 55.4481 50 56.4343C51.3395 55.4481 52.8966 54.7983 54.5398 54.5398C54.7983 52.8966 55.4481 51.3395 56.4343 50Z" fill="#E8B0B0"/>
<path d="M40.2717 62.1348C43.1595 62.6837 45.8954 63.8479 48.2933 65.5482V59.4723C47.2211 58.5729 45.8984 58.0248 44.5044 57.9021L40.2717 62.1348Z" fill="#E8B0B0"/>
<path d="M51.7068 59.4723V65.4629C54.1047 63.7627 56.8405 62.5985 59.7284 62.0495L55.4957 57.8168C54.0919 57.9637 52.7682 58.5421 51.7068 59.4723V59.4723Z" fill="#E8B0B0"/>
<path d="M62.1348 59.7284C62.6837 56.8405 63.8479 54.1047 65.5482 51.7068H59.4723C58.5729 52.7789 58.0248 54.1016 57.9021 55.4957L62.1348 59.7284Z" fill="#E8B0B0"/>
<path d="M65.4629 48.2932C63.7627 45.8953 62.5985 43.1595 62.0495 40.2716L57.8168 44.5043C57.9637 45.9081 58.5421 47.2318 59.4723 48.2932H65.4629Z" fill="#E8B0B0"/>
<path d="M59.7284 37.8652C56.8473 37.342 54.112 36.2072 51.7068 34.5371V40.5277C52.7789 41.4271 54.1016 41.9752 55.4957 42.0979L59.7284 37.8652Z" fill="#E8B0B0"/>
<path d="M48.2933 40.5277V34.5371C45.8881 36.2072 43.1527 37.342 40.2717 37.8652L44.5044 42.0979C45.8984 41.9752 47.2211 41.4271 48.2933 40.5277Z" fill="#E8B0B0"/>
<path d="M37.8652 40.2716C37.3421 43.1527 36.2072 45.888 34.5371 48.2932H40.5277C41.4271 47.221 41.9752 45.8984 42.0979 44.5043L37.8652 40.2716Z" fill="#E8B0B0"/>
<path d="M42.0979 55.4957C41.9752 54.1016 41.4271 52.7789 40.5277 51.7068H34.5371C36.2072 54.112 37.3421 56.8473 37.8652 59.7284L42.0979 55.4957Z" fill="#E8B0B0"/>
</svg>
