<svg width="100" height="100" viewBox="0 0 100 100" fill="none" xmlns="http://www.w3.org/2000/svg">
<g clip-path="url(#clip0)">
<path d="M17.2413 24.6079L-9.71789 -2.35132C-12.2351 33.541 -26.3759 67.6366 -50 94.7751H-11.8077C6.41179 75.9087 16.7936 50.8317 17.2413 24.6079Z" fill="#657174"/>
<path d="M94.7754 -11.8078V-50C67.6369 -26.3759 33.5414 -12.2351 -2.35095 -9.71789L24.6083 17.2936C50.8393 16.8318 75.9172 6.43089 94.7754 -11.8078V-11.8078Z" fill="#657174"/>
<path d="M94.7753 2.0899C77.5463 16.0873 56.5764 24.7006 34.4828 26.8548L60.6061 52.9781C73.2744 52.6877 85.4104 47.8259 94.7753 39.2895V2.0899Z" fill="#657174"/>
<path d="M53.3438 60.7626L27.2205 34.6393C24.9312 56.7176 16.1908 77.6329 2.0899 94.7751H39.2895C47.9241 85.5044 52.9157 73.4244 53.3438 60.7626V60.7626Z" fill="#657174"/>
<path d="M119.697 99.9998C116.678 95.899 114.689 91.1326 113.897 86.1022C108.867 85.3109 104.1 83.3219 99.9998 80.3028C95.899 83.3219 91.1326 85.3109 86.1022 86.1022C85.3109 91.1326 83.3219 95.899 80.3028 99.9998C83.3219 104.1 85.3109 108.867 86.1022 113.897C91.1326 114.689 95.899 116.678 99.9998 119.697C104.1 116.678 108.867 114.689 113.897 113.897C114.689 108.867 116.678 104.1 119.697 99.9998Z" fill="#657174"/>
<path d="M94.7752 71.0031V52.6645C87.4123 57.7769 79.0388 61.251 70.2193 62.8526L83.1765 75.8098C87.444 75.4342 91.493 73.7562 94.7752 71.0031Z" fill="#657174"/>
<path d="M62.8529 70.2192C61.2513 79.0387 57.7772 87.4122 52.6648 94.7751H71.0033C73.7565 91.4929 75.4345 87.4439 75.81 83.1763L62.8529 70.2192Z" fill="#657174"/>
</g>
<defs>
<clipPath id="clip0">
<rect width="100" height="100" rx="50" fill="white"/>
</clipPath>
</defs>
</svg>
