<svg width="100" height="100" viewBox="0 0 100 100" fill="none" xmlns="http://www.w3.org/2000/svg">
<g clip-path="url(#clip0)">
<path d="M125.064 54.0056H96.5446C89.9248 61.1132 86.0979 70.3745 85.7697 80.0818L105.798 100.11C107.553 83.183 114.254 67.148 125.064 54.0056V54.0056Z" fill="#657174"/>
<path d="M106.078 -0.230042L86.05 19.7978C86.2727 29.5102 90.0001 38.8145 96.5446 45.9942H125.064C114.333 32.7853 107.729 16.7084 106.078 -0.230042V-0.230042Z" fill="#657174"/>
<path d="M100.23 -6.07798C83.2914 -7.72952 67.2145 -14.333 54.0056 -25.0644V3.45527C61.1131 10.0751 70.3745 13.902 80.0818 14.2303L100.23 -6.07798Z" fill="#657174"/>
<path d="M45.9944 -25.0644C32.7854 -14.333 16.7085 -7.72952 -0.229919 -6.07798L19.7979 13.9499C29.5103 13.7273 38.8146 9.99986 45.9944 3.45527V-25.0644Z" fill="#657174"/>
<path d="M14.2303 19.918L-5.7976 -0.109863C-7.55274 16.8168 -14.2537 32.8518 -25.0644 45.9943H3.45527C10.0751 38.8867 13.902 29.6253 14.2303 19.918V19.918Z" fill="#657174"/>
<path d="M-6.07799 100.23L13.9499 80.202C13.7273 70.4896 9.99985 61.1853 3.45527 54.0056H-25.0644C-14.333 67.2145 -7.72952 83.2914 -6.07799 100.23V100.23Z" fill="#657174"/>
<path d="M-0.229919 106.078C16.7085 107.729 32.7854 114.333 45.9944 125.064V96.5446C38.8868 89.9247 29.6254 86.0979 19.9181 85.7696L-0.229919 106.078Z" fill="#657174"/>
<path d="M54.0056 125.064C67.2145 114.333 83.2914 107.729 100.23 106.078L80.202 86.05C70.4896 86.2727 61.1853 90.0001 54.0056 96.5446V125.064Z" fill="#657174"/>
<path d="M65.1009 49.9999C62.7862 46.856 61.2613 43.2017 60.6547 39.3451C56.798 38.7384 53.1438 37.2135 49.9999 34.8989C46.856 37.2135 43.2017 38.7384 39.3451 39.3451C38.7384 43.2017 37.2135 46.856 34.8989 49.9999C37.2135 53.1438 38.7384 56.798 39.3451 60.6547C43.2017 61.2613 46.856 62.7862 49.9999 65.1009C53.1438 62.7862 56.798 61.2613 60.6547 60.6547C61.2613 56.798 62.7862 53.1438 65.1009 49.9999Z" fill="#657174"/>
<path d="M27.1681 78.4795C33.9457 79.7679 40.3665 82.5001 45.9943 86.4906V72.2308C43.4779 70.12 40.3737 68.8336 37.1019 68.5457L27.1681 78.4795Z" fill="#657174"/>
<path d="M54.0056 72.2309V86.2905C59.6333 82.3 66.0541 79.5677 72.8317 78.2794L62.8979 68.3456C59.6034 68.6903 56.4968 70.0477 54.0056 72.2309V72.2309Z" fill="#657174"/>
<path d="M78.4794 72.8318C79.7678 66.0542 82.5001 59.6333 86.4906 54.0056H72.2307C70.1199 56.5219 68.8335 59.6262 68.5456 62.898L78.4794 72.8318Z" fill="#657174"/>
<path d="M86.2904 45.9943C82.2999 40.3665 79.5677 33.9457 78.2793 27.1681L68.3455 37.1019C68.6902 40.3964 70.0476 43.5031 72.2309 45.9943H86.2904Z" fill="#657174"/>
<path d="M72.8317 21.5203C66.0701 20.2925 59.6504 17.629 54.0056 13.7095V27.769C56.5219 29.8798 59.6262 31.1662 62.8979 31.4542L72.8317 21.5203Z" fill="#657174"/>
<path d="M45.9943 27.769V13.7095C40.3494 17.629 33.9297 20.2925 27.1681 21.5203L37.1019 31.4542C40.3737 31.1662 43.4779 29.8798 45.9943 27.769Z" fill="#657174"/>
<path d="M21.5206 27.1681C20.2927 33.9297 17.6292 40.3494 13.7097 45.9943H27.7693C29.88 43.4779 31.1665 40.3737 31.4544 37.1019L21.5206 27.1681Z" fill="#657174"/>
<path d="M31.4544 62.898C31.1665 59.6262 29.88 56.5219 27.7693 54.0056H13.7097C17.6292 59.6505 20.2927 66.0702 21.5206 72.8318L31.4544 62.898Z" fill="#657174"/>
</g>
<defs>
<clipPath id="clip0">
<rect width="100" height="100" rx="50" fill="white"/>
</clipPath>
</defs>
</svg>
